<svg xmlns="http://www.w3.org/2000/svg" width="293" height="103" viewBox="0 0 293 103"><defs><mask id="ahpjb" width="2" height="2" x="-1" y="-1"><path fill="#fff" d="M7 7h279v90H7z"/><path d="M7 7.621h263v1.817l.5-1.433 15.509 44.499-15.51 44.498L270 95.57v.7H7z"/></mask><filter id="ahpja" width="317" height="128" x="-12" y="-12" filterUnits="userSpaceOnUse"><feOffset in="SourceGraphic" result="FeOffset1043Out"/><feGaussianBlur in="FeOffset1043Out" result="FeGaussianBlur1044Out" stdDeviation="3.6 3.6"/></filter></defs><g><g><g filter="url(#ahpja)"><path fill="none" d="M7 7.621h263v1.817l.5-1.433 15.509 44.499-15.51 44.498L270 95.57v.7H7z" mask="url(&quot;#ahpjb&quot;)"/><path fill-opacity=".17" d="M7 7.621h263v1.817l.5-1.433 15.509 44.499-15.51 44.498L270 95.57v.7H7z"/></g><path fill="#ffd801" d="M7 7.621h263v1.817l.5-1.433 15.509 44.499-15.51 44.498L270 95.57v.7H7z"/></g></g></svg>